<svg width="100" height="100" viewBox="0 0 400 200" xmlns="http://www.w3.org/2000/svg">

 <g>
  <title>background</title>
  <rect fill="none" id="canvas_background" height="202" width="402" y="-1" x="-1"/>
 </g>
 <g>
  <title>Layer 1</title>
  <g stroke="null" transform="translate(0,-1.3518378734588623) translate(0,14.159228324890137) translate(39.444644927978516,0) translate(0,35.54335403442383) translate(0.000011444091796875,0) translate(-11.474186897277832,0) translate(-16.516170501708984,0) translate(-1.0979104042053223,0) translate(-8.344650268554688e-7,0) translate(-11.720126152038574,0) translate(0,-0.000011444091796875) translate(400.0000305175781,-0.000003033323991985526) scale(1.0049667358398438) translate(-400.0000305175781,0.000003033323991985526) matrix(1,0,0,1,0,0) matrix(1,0,0,1,0,0) matrix(1,0,0,1,0,0) translate(3.926636219024658,-0.000003033323991985526) scale(1.0024833679199219) translate(-3.926636219024658,0.000003033323991985526) " id="svg_1">
   <g stroke="null" transform="translate(-162.1999969482422,-121.6500015258789) scale(1.3167999982833862) " stroke-miterlimit="2" stroke-width="0" fill="#5f51fc" id="logo-group">
    <path stroke="null" d="m169.598287584417,116.577004020751c-4.836888456008,-5.581007289408 -10.975733452833,-8.371820371198 -18.231259535023,-8.371820371198c-4.836888456008,0 -9.208847689774,1.116216929736 -13.022659779038,3.348573429936c-3.90672057444,2.232433859472 -6.883273267311,5.301972396792 -9.022411845249,9.208847689774c-2.139370655752,3.90672057444 -3.16260174104,8.371820371198 -3.16260174104,13.301153156753c0,4.836888456008 1.023153726016,9.301678815679 3.255587585488,13.208322030847c2.232433859472,3.90672057444 5.301972396792,6.97625911176 9.208847689774,9.208847689774c3.90672057444,2.232433859472 8.278215652577,3.348573429936 13.208322030847,3.348573429936c6.697224219143,0 12.278463586366,-2.046384811304 16.74286714968,-6.232140278359c0.744134305254,-0.744134305255 1.116216929736,-1.58130087052 1.116216929736,-2.511468752088c0,-1.209202774184 -0.651117517098,-2.32541970392 -1.767349918688,-3.348573429936c-0.744134305254,-0.558100728941 -1.58130087052,-0.83718203712 -2.418405548368,-0.83718203712c-1.116216929736,0 -2.32541970392,0.465083940784 -3.441636633656,1.302265977904c-2.604454596536,2.232433859472 -6.046091230192,3.255587585488 -10.231537260161,3.255587585488c-3.255587585488,0 -6.13907707464,-0.744134305254 -8.650313748913,-2.232433859472c-2.511468752088,-1.4882376668 -4.464790359672,-3.534622478104 -5.860042182024,-6.13907707464s-2.046384811304,-5.673993133856 -2.046384811304,-9.022411845248c0,-5.208909193072 1.4882376668,-9.48734106749 4.464790359672,-12.650561682702c2.976552692872,-3.16260174104 6.790210063592,-4.836888456008 11.627098519599,-4.836888456008c2.32541970392,0 4.371804515224,0.465083940784 6.232140278359,1.209202774184c1.860335763136,0.744134305254 3.534622478104,1.953321607584 5.115923348624,3.627685681824c0.930167881568,1.116216929736 2.139370655752,1.674286714968 3.627685681824,1.674286714968c0.744134305254,0 1.4882376668,-0.186033576314 2.139370655752,-0.651117517098c1.302265977904,-0.930167881568 2.046384811304,-2.046384811304 2.046384811304,-3.441636633656c0,-0.930167881568 -0.372067152627,-1.674286714968 -0.930167881568,-2.418405548368l-0.000464155629,0.000371324504z" id="path146891"/>
    <path stroke="null" d="m213.089670070902,107.177852522871c-7.813286430336,0 -14.41744744576,2.790503644704 -19.998918890797,8.278215652577c-5.488021444959,5.48802144496 -8.185384526672,12.09202774184 -8.185384526672,19.905314172176l0,19.626820794461c0,1.302265977904 0.372067152627,2.32541970392 1.302265977904,3.16260174104c0.83718203712,0.930167881568 1.860335763136,1.302265977904 3.16260174104,1.302265977904c1.209202774184,0 2.232433859472,-0.372067152627 3.06953853732,-1.302265977904c0.930167881568,-0.83718203712 1.395251822352,-1.860335763136 1.395251822352,-3.16260174104l0,-19.626820794461c0,-5.301972396792 1.860335763136,-9.859439163825 5.581007289408,-13.580420127183c3.81365737072,-3.81365737072 8.371820371198,-5.673993133856 13.673251253088,-5.673993133856c1.209202774184,0 2.232433859472,-0.465083940784 3.16260174104,-1.302265977904c0.83718203712,-0.930167881568 1.302265977904,-1.953321607584 1.302265977904,-3.16260174104c0,-1.209202774184 -0.465083940784,-2.32541970392 -1.302265977904,-3.16260174104c-0.930167881568,-0.83718203712 -1.953321607584,-1.302265977904 -3.16260174104,-1.302265977904l0.000386796358,0.000618874173z" id="path146893"/>
    <path stroke="null" d="m248.179835662986,159.828572765315c6.13907707464,0 11.534267393694,-1.860335763136 16.277937927439,-5.767056337576c1.023231085288,-0.744134305254 1.4882376668,-1.767349918688 1.674286714968,-2.976552692872c0.093016788157,-1.302265977904 -0.186033576314,-2.32541970392 -1.023153726016,-3.348573429936c-0.744149777109,-0.930167881568 -1.767349918688,-1.4882376668 -2.976552692872,-1.58130087052c-1.209202774184,-0.093016788157 -2.32541970392,0.186033576314 -3.255587585488,1.023153726016c-3.162524381768,2.511468752088 -6.697224219143,3.720671526272 -10.697240075118,3.720671526272c-4.65083940784,0 -8.650313748913,-1.58130087052 -11.90636549003,-4.929874300456c-3.348650789208,-3.255587585488 -4.929874300456,-7.255294004376 -4.929874300456,-11.90636549003c0,-4.65083940784 1.58130087052,-8.650313748913 4.929874300456,-11.999196615935c3.255587585488,-3.255587585488 7.255294004376,-4.929874300456 11.90636549003,-4.929874300456c3.81365737072,0 7.255294004376,1.209202774184 10.325141978782,3.534622478104c2.976552692872,2.32541970392 4.929874300456,5.301972396792 5.953105385744,8.929580719344l-16.277937927439,0c-1.209202774184,0 -2.32541970392,0.465083940784 -3.16260174104,1.302265977904s-1.302188618632,1.953321607584 -1.302188618632,3.16260174104c0,1.209202774184 0.46506846893,2.32541970392 1.302188618632,3.16260174104c0.83718203712,0.83718203712 1.953321607584,1.302265977904 3.16260174104,1.302265977904l21.393706557519,0c1.209202774184,0 2.232433859472,-0.465083940784 3.06953853732,-1.302265977904c0.930167881568,-0.83718203712 1.395251822352,-1.953321607584 1.395251822352,-3.16260174104c0,-7.162308159928 -2.604454596536,-13.208322030848 -7.627392100712,-18.231259535023c-5.022860144904,-5.022937504176 -11.069338171453,-7.627392100711 -18.231259535023,-7.627392100711c-7.162308159927,0 -13.208322030847,2.604454596536 -18.231259535023,7.627392100711s-7.534328896992,11.069338171454 -7.534328896992,18.231259535023c0,7.162308159927 2.511468752088,13.208322030847 7.534328896992,18.231259535023c5.022937504176,5.022937504176 11.069338171453,7.534328896992 18.231259535023,7.534328896992l0.000154718543,0.000309437086z" id="path146895"/>
    <path stroke="null" d="m323.38851950034,115.826619086353c-5.022937504176,-5.022937504176 -11.069338171454,-7.627392100712 -18.231259535023,-7.627392100712c-7.069244956208,0 -13.208322030847,2.604454596536 -18.231259535023,7.627392100712s-7.534328896991,11.069338171454 -7.534328896991,18.231259535023c0,7.162308159927 2.511468752088,13.208322030848 7.534328896991,18.231259535023c5.022937504176,5.022937504175 11.162169297359,7.534328896992 18.231259535023,7.534328896992c6.418189326527,0 12.09202774184,-2.046384811304 16.929302994206,-6.23214027836l0,1.767349918688c0,1.302265977904 0.372067152627,2.32541970392 1.302265977904,3.16260174104c0.83718203712,0.930167881568 1.860335763136,1.302265977904 3.16260174104,1.302265977904c1.209202774184,0 2.232433859472,-0.372067152627 3.16260174104,-1.302265977904c0.83718203712,-0.83718203712 1.302265977904,-1.860335763136 1.302265977904,-3.16260174104l0,-21.300875431614c0,-7.162308159928 -2.511468752088,-13.208322030848 -7.627392100711,-18.231259535023l-0.000386796358,0.000077359272zm-18.231259535023,35.066957810608c-4.65083940784,0 -8.650313748913,-1.58130087052 -11.90636549003,-4.929874300456c-3.348573429936,-3.255587585488 -4.929874300456,-7.255294004376 -4.929874300456,-11.90636549003c0,-4.65083940784 1.58130087052,-8.650313748913 4.929874300456,-11.90636549003c3.255587585488,-3.348573429936 7.255294004376,-5.022937504175 11.90636549003,-5.022937504175c4.65083940784,0 8.650313748913,1.674286714968 11.90636549003,5.022937504175c3.348573429936,3.255587585488 5.022937504176,7.255294004376 5.022937504176,11.90636549003c0,4.65083940784 -1.674286714968,8.650313748913 -5.022937504176,11.90636549003c-3.255587585488,3.348573429936 -7.255294004376,4.929874300456 -11.90636549003,4.929874300456z" id="path146897"/>
    <path stroke="null" d="m385.972170214617,116.577004020751c-4.836888456008,-5.581007289408 -10.975733452833,-8.371820371198 -18.231259535023,-8.371820371198c-4.836888456008,0 -9.208847689774,1.116216929736 -13.022659779037,3.348573429936c-3.90672057444,2.232433859472 -6.883273267311,5.301972396792 -9.022411845249,9.208847689774c-2.139370655752,3.90672057444 -3.16260174104,8.371820371198 -3.16260174104,13.301153156753c0,4.836888456008 1.023153726016,9.301678815679 3.255587585488,13.208322030847c2.2323565002,3.90672057444 5.301972396792,6.97625911176 9.208847689774,9.208847689774c3.90672057444,2.232433859472 8.278215652577,3.348573429936 13.208322030848,3.348573429936c6.697224219143,0 12.278463586366,-2.046384811304 16.74286714968,-6.232140278359c0.7441188334,-0.744134305255 1.116216929736,-1.58130087052 1.116216929736,-2.511468752088c0,-1.209202774184 -0.651117517098,-2.32541970392 -1.767272559416,-3.348573429936c-0.744149777109,-0.558100728941 -1.58130087052,-0.83718203712 -2.41848290764,-0.83718203712c-1.116216929736,0 -2.32541970392,0.465083940784 -3.441636633656,1.302265977904c-2.604454596536,2.232433859472 -6.046091230191,3.255587585488 -10.231537260161,3.255587585488c-3.255587585488,0 -6.13907707464,-0.744134305254 -8.650313748913,-2.232433859472c-2.511468752088,-1.4882376668 -4.464790359672,-3.534622478104 -5.860042182024,-6.13907707464s-2.046384811304,-5.673993133856 -2.046384811304,-9.022411845248c0,-5.208909193072 1.488315026072,-9.48734106749 4.464790359672,-12.650561682702c2.976552692872,-3.16260174104 6.790210063592,-4.836888456008 11.627098519599,-4.836888456008c2.32541970392,0 4.371804515224,0.465083940784 6.23214027836,1.209202774184c1.860335763136,0.744134305254 3.534622478104,1.953321607584 5.115923348624,3.627685681824c0.930167881568,1.116216929736 2.139370655752,1.674286714968 3.627685681823,1.674286714968c0.744134305254,0 1.488315026072,-0.186033576314 2.139370655752,-0.651117517098c1.302188618632,-0.930167881568 2.046384811304,-2.046384811304 2.046384811304,-3.441636633656c0,-0.930167881568 -0.372067152627,-1.674286714968 -0.930167881568,-2.418405548368l-0.000464155629,0.000371324504z" id="path146899"/>
    <path stroke="null" d="m422.300084152101,150.15092788972c-2.697517800256,0 -5.022937504176,-0.930167881568 -6.883273267311,-2.883489489152c-1.953321607584,-1.860335763136 -2.883489489152,-4.185755467056 -2.883489489152,-6.883273267311l0,-21.85863577976l8.278215652577,0c1.116216929736,0 2.139370655752,-0.372067152627 2.976552692872,-1.209202774184c0.744142041181,-0.744134305254 1.209202774184,-1.767349918688 1.209202774184,-2.976552692872c0,-1.116216929736 -0.465083940784,-2.139370655752 -1.209202774184,-2.976552692872c-0.83718203712,-0.744134305254 -1.860335763136,-1.209202774184 -2.976552692872,-1.209202774184l-8.28517798702,0l0,-13.120132461238c0,-1.302265977904 -0.465091676711,-2.32541970392 -1.395251822352,-3.255587585488s-1.953321607584,-1.395251822352 -3.255587585488,-1.395251822352s-2.418405548368,0.465083940784 -3.348573429936,1.395251822352s-1.302265977904,1.953321607584 -1.302265977904,3.255587585488l0,43.345947055901c0,5.301972396792 1.860335763136,9.76660803792 5.581007289408,13.487589001278c3.720671526272,3.720671526272 8.185384526672,5.581007289408 13.487589001278,5.581007289408c1.302265977904,0 2.32541970392,-0.372067152627 3.255587585488,-1.302265977904s1.395251822352,-2.046384811304 1.395251822352,-3.348573429936c0,-1.302265977904 -0.465083940784,-2.32541970392 -1.395251822352,-3.255587585488s-1.953321607584,-1.395251822352 -3.255587585488,-1.395251822352l0.0068076159,0.004177400666z" id="path146901"/>
   </g>
  </g>
 </g>
</svg>