<?xml version="1.0" encoding="UTF-8" standalone="no"?>
<svg
   xmlns:dc="http://purl.org/dc/elements/1.1/"
   xmlns:cc="http://creativecommons.org/ns#"
   xmlns:rdf="http://www.w3.org/1999/02/22-rdf-syntax-ns#"
   xmlns:svg="http://www.w3.org/2000/svg"
   xmlns="http://www.w3.org/2000/svg"
   id="svg13"
   version="1.1"
   height="250"
   width="400">
  <metadata
     id="metadata19">
    <rdf:RDF>
      <cc:Work
         rdf:about="">
        <dc:format>image/svg+xml</dc:format>
        <dc:type
           rdf:resource="http://purl.org/dc/dcmitype/StillImage" />
      </cc:Work>
    </rdf:RDF>
  </metadata>
  <defs
     id="defs17" />
  <g
     id="g5">
    <title
       id="title2">background</title>
    <path
       id="canvas_background"
       d="M -1,-1 H 401 V 251 H -1 Z"
       style="fill:none" />
  </g>
  <g
     id="g11">
    <title
       id="title7">Layer 1</title>
    <g
       id="svg_1"
       transform="matrix(4.7895184,0,0,4.7895184,-1295.4159,-2192.5853)"
       stroke="null">
      <path
         style="fill:#5a66fb"
         d="m 272.11967,452.806 c -0.22918,0 -0.42577,0.0819 -0.58947,0.24556 -0.1637,0.1637 -0.2292,0.34372 -0.2292,0.5729 v 7.6287 c 0,0.93312 0.32742,1.71882 0.98224,2.37361 0.65481,0.65482 1.44069,0.98224 2.37381,0.98224 0.22919,0 0.40921,-0.0655 0.57291,-0.2292 0.1637,-0.1637 0.24556,-0.36008 0.24556,-0.58926 0,-0.22918 -0.0819,-0.40941 -0.24556,-0.57311 -0.16371,-0.16371 -0.34372,-0.24556 -0.57291,-0.24556 -0.47474,0 -0.88403,-0.1637 -1.21146,-0.50748 -0.34378,-0.32741 -0.50748,-0.7365 -0.50748,-1.21126 v -3.84718 h 1.45703 c 0.19645,0 0.37649,-0.0655 0.52383,-0.21284 0.13097,-0.13096 0.21285,-0.31102 0.21285,-0.52384 0,-0.19644 -0.0819,-0.37649 -0.21285,-0.52383 -0.14734,-0.13096 -0.32738,-0.21285 -0.52383,-0.21285 h -1.45703 v -2.30816 c 0,-0.22918 -0.0818,-0.4092 -0.24556,-0.5729 -0.1637,-0.16371 -0.34372,-0.24556 -0.5729,-0.24556 z m -34.28227,2.60283 c -1.37514,0 -2.53739,0.49115 -3.51963,1.45703 -0.96585,0.96586 -1.44068,2.12815 -1.44068,3.50329 v 3.45417 c 0,0.22919 0.0655,0.40922 0.2292,0.55655 0.14733,0.16371 0.32736,0.22921 0.55655,0.22921 0.21281,0 0.39285,-0.0655 0.54019,-0.22921 0.1637,-0.14733 0.24556,-0.32736 0.24556,-0.55655 v -3.45417 c 0,-0.93312 0.32743,-1.73536 0.98224,-2.39016 0.67119,-0.67119 1.47346,-0.99859 2.40649,-0.99859 0.21281,0 0.39284,-0.0817 0.55655,-0.22901 0.14733,-0.1637 0.2292,-0.34393 0.2292,-0.55676 0,-0.21281 -0.0819,-0.40921 -0.2292,-0.55654 -0.16371,-0.14734 -0.34374,-0.22921 -0.55655,-0.22921 z m -10.86255,0.18013 c -0.85126,0 -1.62059,0.19638 -2.29182,0.58927 -0.68756,0.39288 -1.21157,0.93322 -1.58803,1.6208 -0.37652,0.68755 -0.55655,1.47325 -0.55655,2.34093 0,0.85127 0.18002,1.63704 0.57291,2.3245 0.3929,0.68756 0.93322,1.22791 1.6208,1.6208 0.68756,0.39289 1.45692,0.58926 2.3245,0.58926 1.17869,0 2.16093,-0.36006 2.94672,-1.09669 0.13097,-0.13097 0.19649,-0.27835 0.19649,-0.44205 0,-0.21282 -0.11475,-0.40919 -0.3112,-0.58926 -0.13095,-0.0982 -0.27814,-0.14742 -0.42548,-0.14742 -0.19645,0 -0.40938,0.0819 -0.60583,0.2292 -0.45836,0.39289 -1.06402,0.5729 -1.8007,0.5729 -0.57297,0 -1.08047,-0.13084 -1.52248,-0.39277 -0.44199,-0.26193 -0.78575,-0.62221 -1.03131,-1.08057 -0.24556,-0.45836 -0.36026,-0.99852 -0.36026,-1.58781 0,-0.91674 0.2621,-1.66981 0.78596,-2.22638 0.52385,-0.55659 1.19502,-0.85118 2.04626,-0.85118 0.40927,0 0.76933,0.0819 1.0967,0.21285 0.32741,0.13095 0.62216,0.34367 0.90046,0.63833 0.1637,0.19645 0.3764,0.29463 0.63833,0.29463 0.13096,0 0.26203,-0.0326 0.37662,-0.1145 0.22918,-0.1637 0.36006,-0.36026 0.36006,-0.60582 0,-0.16371 -0.0653,-0.29453 -0.16357,-0.42549 -0.85126,-0.98222 -1.93171,-1.47336 -3.20862,-1.47336 z m 17.03826,0 c -1.26047,0 -2.3246,0.45831 -3.20862,1.34226 -0.884,0.88401 -1.32592,1.94815 -1.32592,3.20862 0,1.26047 0.44195,2.3246 1.32592,3.20862 0.88401,0.884 1.94815,1.32592 3.20862,1.32592 1.08046,0 2.02983,-0.3274 2.86473,-1.01496 0.18007,-0.13095 0.26209,-0.31101 0.29484,-0.52383 0.0164,-0.22918 -0.0328,-0.40919 -0.18013,-0.58926 -0.13097,-0.1637 -0.31102,-0.26191 -0.52384,-0.27827 -0.21281,-0.0164 -0.4094,0.0326 -0.57311,0.17992 -0.55659,0.442 -1.17859,0.6549 -1.88249,0.6549 -0.81852,0 -1.52237,-0.2784 -2.09538,-0.86775 -0.58933,-0.57296 -0.86774,-1.2768 -0.86774,-2.09537 0,-0.81852 0.2784,-1.52237 0.86774,-2.11172 0.57297,-0.57296 1.27681,-0.86774 2.09538,-0.86774 0.67119,0 1.27681,0.21292 1.81704,0.62218 0.52386,0.40927 0.8676,0.93306 1.04769,1.57148 h -2.86504 c -0.21282,0 -0.40921,0.0819 -0.55655,0.22921 -0.14733,0.14733 -0.2292,0.34373 -0.2292,0.55655 0,0.21281 0.0819,0.40921 0.2292,0.55654 0.14734,0.14734 0.34373,0.22921 0.55655,0.22921 h 3.76519 c 0.21281,0 0.39285,-0.0819 0.54019,-0.22921 0.1637,-0.14733 0.24556,-0.34373 0.24556,-0.55654 0,-1.26048 -0.45831,-2.32461 -1.34226,-3.20862 -0.884,-0.88401 -1.94815,-1.34226 -3.20862,-1.34226 z m 10.02795,0 c -1.24413,0 -2.3246,0.45831 -3.20862,1.34226 -0.884,0.88401 -1.32612,1.94815 -1.32612,3.20862 0,1.26047 0.44214,2.3246 1.32612,3.20862 0.88401,0.884 1.96449,1.32592 3.20862,1.32592 1.12958,0 2.12795,-0.36007 2.97919,-1.0967 v 0.31099 c 0,0.22918 0.0655,0.40921 0.2292,0.55655 0.14734,0.1637 0.32757,0.2292 0.55676,0.2292 0.21281,0 0.39284,-0.0655 0.55655,-0.2292 0.14733,-0.14734 0.2292,-0.32737 0.2292,-0.55655 v -3.74885 c 0,-1.26047 -0.44213,-2.3246 -1.34246,-3.20862 -0.88401,-0.88401 -1.94794,-1.34226 -3.20842,-1.34226 z m 11.01351,0 c -0.85127,0 -1.6206,0.19638 -2.29183,0.58927 -0.68756,0.39288 -1.21157,0.93322 -1.58802,1.6208 -0.37652,0.68755 -0.55655,1.47325 -0.55655,2.34093 0,0.85127 0.18002,1.63704 0.5729,2.3245 0.39289,0.68756 0.93322,1.22791 1.6208,1.6208 0.68756,0.39289 1.45692,0.58926 2.3245,0.58926 1.17869,0 2.16093,-0.36006 2.94672,-1.09669 0.13096,-0.13097 0.19649,-0.27835 0.19649,-0.44205 0,-0.21282 -0.11474,-0.40919 -0.31119,-0.58926 -0.13097,-0.0982 -0.27816,-0.14742 -0.42549,-0.14742 -0.19645,0 -0.40938,0.0819 -0.60582,0.2292 -0.45838,0.39289 -1.06403,0.5729 -1.80071,0.5729 -0.57297,0 -1.08046,-0.13084 -1.52247,-0.39277 -0.442,-0.26193 -0.78576,-0.62221 -1.03131,-1.08057 -0.24556,-0.45836 -0.36027,-0.99852 -0.36027,-1.58781 0,-0.91674 0.2621,-1.66981 0.78596,-2.22638 0.52385,-0.55659 1.19502,-0.85118 2.04627,-0.85118 0.40926,0 0.76933,0.0819 1.09669,0.21285 0.32741,0.13095 0.62216,0.34367 0.90046,0.63833 0.1637,0.19645 0.37641,0.29463 0.63833,0.29463 0.13096,0 0.26203,-0.0326 0.37662,-0.1145 0.22919,-0.1637 0.36006,-0.36026 0.36006,-0.60582 0,-0.16371 -0.0654,-0.29453 -0.16357,-0.42549 -0.85126,-0.98222 -1.9317,-1.47336 -3.20862,-1.47336 z m -11.01351,1.57149 c 0.81853,0 1.52237,0.29476 2.09538,0.88409 0.58934,0.57297 0.88389,1.27681 0.88389,2.09538 0,0.81852 -0.29455,1.52237 -0.88389,2.09538 -0.57297,0.58933 -1.27681,0.86774 -2.09538,0.86774 -0.81852,0 -1.52257,-0.2784 -2.09558,-0.86774 -0.58934,-0.57297 -0.86754,-1.27681 -0.86754,-2.09538 0,-0.81851 0.2782,-1.52237 0.86754,-2.09538 0.57297,-0.58933 1.27701,-0.88409 2.09558,-0.88409 z"
         id="svg_2"
         transform="translate(63.461543,24.615388)"
         stroke="null" />
    </g>
  </g>
</svg>
